<?xml version="1.0" encoding="UTF-8"?>
<!DOCTYPE svg PUBLIC "-//W3C//DTD SVG 1.1//EN" "http://www.w3.org/Graphics/SVG/1.1/DTD/svg11.dtd">
<!-- Creator: CorelDRAW 2021 (64-Bit) -->
<svg xmlns="http://www.w3.org/2000/svg" xml:space="preserve" width="200mm" height="200mm" version="1.1" style="shape-rendering:geometricPrecision; text-rendering:geometricPrecision; image-rendering:optimizeQuality; fill-rule:evenodd; clip-rule:evenodd"
viewBox="0 0 20000 20000"
 xmlns:xlink="http://www.w3.org/1999/xlink"
 xmlns:xodm="http://www.corel.com/coreldraw/odm/2003">
 <defs>
  <style type="text/css">
   <![CDATA[
    .fil1 {fill:#0174BE}
    .fil0 {fill:#0C356A}
    .fil2 {fill:#FFC436}
   ]]>
  </style>
 </defs>
 <g id="Layer_x0020_1">
  <metadata id="CorelCorpID_0Corel-Layer"/>
  <g id="_2632036510688">
   <circle class="fil0" cx="4926.17" cy="17383.4" r="2460.39"/>
   <path class="fil1" d="M4591.76 4642.25c-1217.49,0 -2204.47,-986.97 -2204.47,-2204.46 0,-1217.49 986.98,-2204.47 2204.47,-2204.47l6607.11 0c2003.92,0 3841.37,757.46 5187.41,1977.8 1404.98,1273.79 2277.07,3041.45 2277.07,4995.49 0,1954.05 -872.09,3721.72 -2277.07,4995.51 -1346.04,1220.33 -3183.49,1977.79 -5187.41,1977.79l-6607.11 0c-1217.49,0 -2204.47,-986.97 -2204.47,-2204.46 0,-1217.49 986.98,-2204.47 2204.47,-2204.47l6607.11 0c889.08,0 1681.68,-315.54 2242.38,-823.89 501.73,-454.88 813.17,-1071.64 813.17,-1740.46 0,-668.83 -311.44,-1285.61 -813.17,-1740.48 -560.7,-508.36 -1353.3,-823.9 -2242.38,-823.9l-6607.11 0z"/>
   <path class="fil2" d="M12102.45 4706.82c876.59,85.49 2137.7,252.88 3068.93,763.69 931.24,510.81 1504.41,1336.84 1816.29,2179.73 311.86,842.89 362.43,1702.64 218.65,2663.54 -59.65,398.72 -152.69,814.82 -160.54,1208.03 1013.1,-1190.98 1617.57,-2688.46 1617.57,-4315.2 0,-1954.04 -872.09,-3721.7 -2277.07,-4995.49 -1346.04,-1220.34 -3183.49,-1977.8 -5187.41,-1977.8l-6607.11 0c-1217.49,0 -2204.47,986.98 -2204.47,2204.47 0,1217.49 986.98,2204.46 2204.47,2204.46l178.88 0 146.03 0 372.91 0c1486.24,-0.07 3145.87,11.81 4278.14,0 1132.27,-11.8 1658.14,-20.91 2534.73,64.57z"/>
  </g>
 </g>
</svg>
